<?xml version="1.0" encoding="UTF-8" standalone="no"?>
<!-- Created with Inkscape (http://www.inkscape.org/) -->

<svg
   width="134.58691mm"
   height="42.048134mm"
   viewBox="0 0 134.58691 42.048134"
   version="1.1"
   id="svg1"
   xml:space="preserve"
   xmlns:xlink="http://www.w3.org/1999/xlink"
   xmlns="http://www.w3.org/2000/svg"
   xmlns:svg="http://www.w3.org/2000/svg"><defs
     id="defs1"><color-profile
       name="sRGB"
       xlink:href="file:///usr/share/color/icc/colord/sRGB.icc"
       id="color-profile2" /></defs><g
     id="layer1"
     transform="translate(-39.715254,-183.20723)"><g
       id="g15"
       transform="translate(-0.11112848,0.21313132)"><g
         id="g63"
         transform="translate(1.3390762,-24.255687)"><path
           style="fill:#ffba6e;fill-opacity:1;paint-order:stroke markers fill"
           d="m 150.1875,230.20703 v 1 h 14.88086 v -1 z"
           id="path61" /><path
           style="fill:#ffba6e;fill-opacity:1;paint-order:stroke markers fill"
           d="m 152.20703,227.49609 v 1 h 16.51758 v -1 z"
           id="path62" /><path
           style="fill:#ffba6e;fill-opacity:1;paint-order:stroke markers fill"
           d="m 151.50195,224.91211 v 1 h 21.57227 v -1 z"
           id="path63" /></g><g
         id="g61"
         transform="translate(0.81977514,-23.773479)"><path
           style="fill:#000000;fill-opacity:1;paint-order:stroke markers fill"
           d="m 150.1875,230.20703 v 1 h 14.88086 v -1 z"
           id="path56" /><path
           style="fill:#000000;fill-opacity:1;paint-order:stroke markers fill"
           d="m 152.20703,227.49609 v 1 h 16.51758 v -1 z"
           id="path58" /><path
           style="fill:#000000;fill-opacity:1;paint-order:stroke markers fill"
           d="m 151.50195,224.91211 v 1 h 21.57227 v -1 z"
           id="path60" /></g><g
         id="path36"
         style="display:inline"><path
           style="display:inline;fill:#ffe000;fill-opacity:1;stroke-miterlimit:20"
           d="m 53.882476,225.04222 1.345016,-10.14699 -12.688094,5.56666 7.081001,-8.06924 -9.79402,-2.34254 9.475068,-4.69127 -4.701285,-6.40146 8.177803,3.34371 -2.193114,-14.03767 6.694235,10.76732 8.411176,-10.59611 0.591371,10.9234 8.186345,-4.63954 -6.612207,7.48638 7.233844,5.26018 -8.405318,2.16823 7.787654,8.45 -7.691455,-2.49844 -1.787934,7.93365 -5.338723,-7.31139 z"
           id="path15" /><path
           style="display:inline;fill:#ff8500;fill-opacity:1;stroke-miterlimit:20"
           d="m 56.07094,222.12427 1.345016,-10.14699 -12.688094,5.56666 7.081001,-8.06924 -9.79402,-2.34254 9.475068,-4.69127 -4.701285,-6.40146 8.177803,3.34371 -2.193114,-14.03767 6.694235,10.76732 8.411176,-10.59611 0.591371,10.9234 8.186345,-4.63954 -6.612207,7.48638 7.233844,5.26018 -8.405318,2.16823 7.787654,8.45 -7.691455,-2.49844 -1.787934,7.93365 -5.338723,-7.31139 z"
           id="path64" /><path
           style="display:inline;fill:#ffb600;fill-opacity:1;stroke-miterlimit:20"
           d="m 59.279141,220.97517 1.345016,-10.14699 -12.688094,5.56666 7.081001,-8.06924 -9.79402,-2.34254 9.475068,-4.69127 -4.701285,-6.40146 8.177803,3.34371 -2.193114,-14.03767 6.694235,10.76732 8.411176,-10.59611 0.591371,10.9234 8.186345,-4.63954 -6.612207,7.48638 7.233844,5.26018 -8.405318,2.16823 7.787654,8.45 -7.691455,-2.49844 -1.787934,7.93365 -5.338723,-7.31139 z"
           id="path66" /><path
           style="display:inline;stroke-miterlimit:20"
           d="m 51.899853,182.9941 2.435547,15.58984 -9,-3.67969 5.400391,7.35157 -10.181641,5.04101 10.332031,2.47071 -8.019531,9.13867 13.935547,-6.11328 -1.515625,11.44726 6.578125,-10.07226 5.5625,7.61718 1.908203,-8.47265 8.986328,2.91797 -8.515625,-9.24024 8.623047,-2.22461 -7.646484,-5.55859 8.226562,-9.31445 -10.082031,5.71484 -0.621094,-11.43359 -8.789062,11.07226 z m 15.550781,3.86523 0.564453,10.41406 6.285157,-3.5625 -4.994141,5.65625 6.820313,4.96094 -8.1875,2.11133 7.058593,7.66016 -6.396484,-2.07813 -1.666016,7.39453 -5.115234,-7.00586 -4.964844,7.59961 1.173828,-8.84765 -11.441406,5.01953 6.144531,-7 -9.259765,-2.21485 8.773437,-4.34179 -4.003906,-5.45117 7.355469,3.00781 -1.951172,-12.48438 5.771484,9.28321 z"
           id="path65" /></g><g
         id="path37"
         style="display:inline"
         transform="translate(0.81977514,-23.773479)"><path
           style="-inkscape-font-specification:'Poppins Ultra-Bold Italic';display:inline;fill:#ffba6e;fill-opacity:1;paint-order:stroke markers fill"
           d="m 143.95674,222.93557 -0.84336,6.59547 h 2.32286 l 0.65474,-2.94659 1.01389,1.79834 2.17764,-1.22887 -2.38073,-4.21835 z m -82.101444,0.34572 c -0.765116,0 -1.447199,0.12894 -2.046387,0.38705 -0.589969,0.2489 -1.050486,0.61731 -1.382344,1.10588 -0.331857,0.47935 -0.498161,1.05564 -0.498161,1.72858 0,0.51622 0.124727,0.94937 0.373621,1.29966 0.248893,0.34108 0.543624,0.61317 0.8847,0.81597 0.341076,0.19359 0.774221,0.40095 1.299662,0.62218 0.525442,0.22124 0.903842,0.41492 1.134298,0.58085 0.239675,0.16593 0.359151,0.37803 0.359151,0.63613 0,0.22124 -0.08263,0.39176 -0.248563,0.5116 -0.156711,0.11983 -0.368808,0.17983 -0.636137,0.17983 -0.322639,0 -0.562625,-0.0879 -0.719336,-0.26303 -0.156709,-0.17514 -0.220923,-0.41935 -0.19327,-0.73277 h -2.862358 c -0.01843,0.18437 -0.0279,0.31331 -0.0279,0.38706 0,0.89417 0.341559,1.57626 1.02371,2.04638 0.69137,0.46092 1.599236,0.69143 2.723865,0.69143 0.792771,0 1.479589,-0.12895 2.060339,-0.38705 0.580751,-0.26734 1.027583,-0.63153 1.341004,-1.09244 0.313421,-0.47013 0.470255,-0.99538 0.470255,-1.57613 0,-0.52544 -0.124727,-0.96806 -0.37362,-1.32757 -0.248893,-0.35951 -0.548359,-0.64529 -0.898653,-0.85731 -0.341076,-0.22124 -0.778955,-0.45649 -1.313615,-0.70539 -0.497786,-0.23045 -0.866201,-0.42834 -1.105876,-0.59428 -0.230457,-0.17514 -0.345715,-0.38251 -0.345715,-0.62218 0,-0.22124 0.07368,-0.39176 0.221175,-0.5116 0.156711,-0.12906 0.359339,-0.19378 0.608231,-0.19378 0.239676,0 0.428617,0.0647 0.566891,0.19378 0.138274,0.11984 0.207739,0.29036 0.207739,0.5116 0,0.083 -0.0047,0.1472 -0.01395,0.19327 h 2.917651 c 0.0092,-0.0737 0.01344,-0.18427 0.01344,-0.33176 0,-0.5531 -0.1521,-1.03256 -0.456303,-1.43816 -0.294985,-0.4056 -0.709709,-0.71402 -1.244369,-0.92604 -0.534659,-0.22124 -1.147794,-0.33176 -1.839164,-0.33176 z m 30.520101,0 c -0.765117,0 -1.447199,0.12894 -2.046387,0.38705 -0.589968,0.2489 -1.051003,0.61731 -1.382861,1.10588 -0.331857,0.47935 -0.497644,1.05564 -0.497644,1.72858 0,0.51622 0.124211,0.94937 0.373104,1.29966 0.248893,0.34108 0.543625,0.61317 0.8847,0.81597 0.341076,0.19359 0.774738,0.40095 1.300179,0.62218 0.525442,0.22124 0.903325,0.41492 1.133781,0.58085 0.239675,0.16593 0.359668,0.37803 0.359668,0.63613 0,0.22124 -0.08315,0.39176 -0.24908,0.5116 -0.156711,0.11983 -0.368808,0.17983 -0.636137,0.17983 -0.322639,0 -0.562108,-0.0879 -0.718819,-0.26303 -0.156709,-0.17514 -0.22144,-0.41935 -0.193787,-0.73277 h -2.862357 c -0.01843,0.18437 -0.02739,0.31331 -0.02739,0.38706 0,0.89417 0.341042,1.57626 1.023193,2.04638 0.69137,0.46092 1.599237,0.69143 2.723865,0.69143 0.792771,0 1.479588,-0.12895 2.06034,-0.38705 0.58075,-0.26734 1.027582,-0.63153 1.341003,-1.09244 0.313421,-0.47013 0.470256,-0.99538 0.470256,-1.57613 0,-0.52544 -0.124211,-0.96806 -0.373104,-1.32757 -0.248894,-0.35951 -0.548876,-0.64529 -0.89917,-0.85731 -0.341076,-0.22124 -0.778956,-0.45649 -1.313615,-0.70539 -0.497786,-0.23045 -0.8662,-0.42834 -1.105876,-0.59428 -0.230456,-0.17514 -0.345715,-0.38251 -0.345715,-0.62218 0,-0.22124 0.07368,-0.39176 0.221175,-0.5116 0.15671,-0.12906 0.359338,-0.19378 0.608232,-0.19378 0.239675,0 0.428616,0.0647 0.56689,0.19378 0.138274,0.11984 0.207739,0.29036 0.207739,0.5116 0,0.083 -0.0047,0.1472 -0.01395,0.19327 h 2.917651 c 0.0092,-0.0737 0.01395,-0.18427 0.01395,-0.33176 0,-0.5531 -0.152101,-1.03256 -0.456303,-1.43816 -0.294985,-0.4056 -0.710226,-0.71402 -1.244885,-0.92604 -0.53466,-0.22124 -1.147278,-0.33176 -1.838648,-0.33176 z m 19.364703,0.0553 c -0.9587,0 -1.84393,0.21158 -2.65513,0.63562 -0.81121,0.41483 -1.48382,1.00059 -2.01848,1.75648 -0.53466,0.74668 -0.88517,1.59929 -1.0511,2.55799 -0.0645,0.35029 -0.0966,0.70502 -0.0966,1.06453 0,0.77433 0.16105,1.45642 0.48369,2.04639 0.32264,0.58997 0.78841,1.04627 1.39682,1.36891 0.61762,0.32264 1.34601,0.48421 2.18488,0.48421 1.2168,0 2.29992,-0.32262 3.24941,-0.9679 0.94948,-0.6545 1.64526,-1.53973 2.08773,-2.65514 h -2.9316 c -0.23046,0.35951 -0.52046,0.63634 -0.87075,0.82992 -0.34108,0.19359 -0.71474,0.29043 -1.12035,0.29043 -0.52544,0 -0.94016,-0.16157 -1.24437,-0.48421 -0.29498,-0.33186 -0.44235,-0.78343 -0.44235,-1.35496 0,-0.22124 0.0184,-0.4286 0.0553,-0.62218 0.12905,-0.74668 0.41957,-1.3414 0.87126,-1.78387 0.4517,-0.44248 0.99063,-0.66353 1.61747,-0.66353 0.4056,0 0.74664,0.0968 1.0232,0.29042 0.27654,0.19358 0.47022,0.4699 0.58084,0.82941 h 2.91765 c -0.0276,-0.73746 -0.20764,-1.37797 -0.5395,-1.92185 -0.33186,-0.54387 -0.79711,-0.96333 -1.3963,-1.25832 -0.59918,-0.29498 -1.29969,-0.44235 -2.10168,-0.44235 z m -44.799843,0.0966 -1.728577,9.74824 h 2.724382 l 0.953947,-5.42034 0.8847,5.42034 h 2.268079 l 2.806547,-5.39244 -0.953947,5.39244 h 2.696476 l 1.728577,-9.74824 h -3.263367 l -3.498494,6.31899 -1.341004,-6.31899 z m 15.289506,0 -5.268412,9.74824 h 2.848405 l 0.802018,-1.59009 h 3.457153 l 0.248564,1.59009 h 2.862358 l -1.825212,-9.74824 z m 15.230078,0 -1.72806,9.74824 h 2.723865 l 0.691431,-3.91294 h 3.290753 l -0.69143,3.91294 h 2.72387 l 1.71462,-9.74824 h -2.70991 l -0.65009,3.67781 h -3.304709 l 0.650089,-3.67781 z m 19.696469,0 -1.72806,9.74824 h 2.72386 l 1.71463,-9.74824 z m 3.73,0 -1.72857,9.74824 h 2.72386 l 0.95447,-5.42034 0.8847,5.42034 h 2.26756 l 2.80706,-5.39244 -0.95394,5.39244 h 2.69647 l 1.72806,-9.74824 h -3.26285 l -3.49849,6.31899 -1.34152,-6.31899 z m 15.28951,0 -5.26841,9.74824 h 2.8484 l 0.80202,-1.59009 h 3.45664 l 0.24908,1.59009 h 2.86236 l -1.82522,-9.74824 z m -52.908911,2.93108 0.483692,3.16674 h -2.087728 z m 53.945541,0 0.48421,3.16674 h -2.08825 z m 6.89622,4.12068 c -0.3503,0 -0.66818,0.0784 -0.95395,0.23513 -0.28576,0.14749 -0.51154,0.35012 -0.67748,0.60823 -0.1567,0.2489 -0.23512,0.52099 -0.23512,0.81597 0,0.34108 0.11999,0.61791 0.35966,0.82993 0.2489,0.21202 0.58521,0.31781 1.00925,0.31781 0.52544,0 0.96332,-0.15684 1.31361,-0.47026 0.35951,-0.32264 0.53899,-0.71421 0.53899,-1.17512 0,-0.34107 -0.12421,-0.6179 -0.37311,-0.82992 -0.23967,-0.22124 -0.56703,-0.33177 -0.98185,-0.33177 z"
           id="path45" /><path
           style="-inkscape-font-specification:'Poppins Ultra-Bold Italic';display:inline;fill:#ff4e00;paint-order:stroke markers fill"
           d="m 143.70541,223.7829 -0.84336,6.59547 h 2.32286 l 0.65474,-2.94659 1.01389,1.79834 2.17764,-1.22887 -2.38073,-4.21835 z m -82.101457,0.34572 c -0.765116,0 -1.447199,0.12894 -2.046387,0.38705 -0.589969,0.2489 -1.050486,0.61731 -1.382344,1.10588 -0.331857,0.47935 -0.498161,1.05564 -0.498161,1.72858 0,0.51622 0.124727,0.94937 0.373621,1.29966 0.248893,0.34108 0.543624,0.61317 0.8847,0.81597 0.341076,0.19359 0.774221,0.40095 1.299662,0.62218 0.525442,0.22124 0.903842,0.41492 1.134298,0.58085 0.239675,0.16593 0.359151,0.37803 0.359151,0.63613 0,0.22124 -0.08263,0.39176 -0.248563,0.5116 -0.156711,0.11983 -0.368808,0.17983 -0.636137,0.17983 -0.322639,0 -0.562625,-0.0879 -0.719336,-0.26303 -0.156709,-0.17514 -0.220923,-0.41935 -0.19327,-0.73277 h -2.862358 c -0.01843,0.18437 -0.0279,0.31331 -0.0279,0.38706 0,0.89417 0.341559,1.57626 1.02371,2.04638 0.69137,0.46092 1.599236,0.69143 2.723865,0.69143 0.792771,0 1.479589,-0.12895 2.060339,-0.38705 0.580751,-0.26734 1.027583,-0.63153 1.341004,-1.09244 0.313421,-0.47013 0.470255,-0.99538 0.470255,-1.57613 0,-0.52544 -0.124727,-0.96806 -0.37362,-1.32757 -0.248893,-0.35951 -0.548359,-0.64529 -0.898653,-0.85731 -0.341076,-0.22124 -0.778955,-0.45649 -1.313615,-0.70539 -0.497786,-0.23045 -0.866201,-0.42834 -1.105876,-0.59428 -0.230457,-0.17514 -0.345715,-0.38251 -0.345715,-0.62218 0,-0.22124 0.07368,-0.39176 0.221175,-0.5116 0.156711,-0.12906 0.359339,-0.19378 0.608231,-0.19378 0.239676,0 0.428617,0.0647 0.566891,0.19378 0.138274,0.11984 0.207739,0.29036 0.207739,0.5116 0,0.083 -0.0047,0.1472 -0.01395,0.19327 h 2.917651 c 0.0092,-0.0737 0.01344,-0.18427 0.01344,-0.33176 0,-0.5531 -0.1521,-1.03256 -0.456303,-1.43816 -0.294985,-0.4056 -0.709709,-0.71402 -1.244369,-0.92604 -0.534659,-0.22124 -1.147794,-0.33176 -1.839164,-0.33176 z m 30.520101,0 c -0.765117,0 -1.447199,0.12894 -2.046387,0.38705 -0.589968,0.2489 -1.051003,0.61731 -1.382861,1.10588 -0.331857,0.47935 -0.497644,1.05564 -0.497644,1.72858 0,0.51622 0.124211,0.94937 0.373104,1.29966 0.248893,0.34108 0.543625,0.61317 0.8847,0.81597 0.341076,0.19359 0.774738,0.40095 1.300179,0.62218 0.525442,0.22124 0.903325,0.41492 1.133781,0.58085 0.239675,0.16593 0.359668,0.37803 0.359668,0.63613 0,0.22124 -0.08315,0.39176 -0.24908,0.5116 -0.156711,0.11983 -0.368808,0.17983 -0.636137,0.17983 -0.322639,0 -0.562108,-0.0879 -0.718819,-0.26303 -0.156709,-0.17514 -0.22144,-0.41935 -0.193787,-0.73277 h -2.862357 c -0.01843,0.18437 -0.02739,0.31331 -0.02739,0.38706 0,0.89417 0.341042,1.57626 1.023193,2.04638 0.69137,0.46092 1.599237,0.69143 2.723865,0.69143 0.792771,0 1.479588,-0.12895 2.06034,-0.38705 0.58075,-0.26734 1.027582,-0.63153 1.341003,-1.09244 0.313421,-0.47013 0.470256,-0.99538 0.470256,-1.57613 0,-0.52544 -0.124211,-0.96806 -0.373104,-1.32757 -0.248894,-0.35951 -0.548876,-0.64529 -0.89917,-0.85731 -0.341076,-0.22124 -0.778956,-0.45649 -1.313615,-0.70539 -0.497786,-0.23045 -0.8662,-0.42834 -1.105876,-0.59428 -0.230456,-0.17514 -0.345715,-0.38251 -0.345715,-0.62218 0,-0.22124 0.07368,-0.39176 0.221175,-0.5116 0.15671,-0.12906 0.359338,-0.19378 0.608232,-0.19378 0.239675,0 0.428616,0.0647 0.56689,0.19378 0.138274,0.11984 0.207739,0.29036 0.207739,0.5116 0,0.083 -0.0047,0.1472 -0.01395,0.19327 h 2.917651 c 0.0092,-0.0737 0.01395,-0.18427 0.01395,-0.33176 0,-0.5531 -0.152101,-1.03256 -0.456303,-1.43816 -0.294985,-0.4056 -0.710226,-0.71402 -1.244885,-0.92604 -0.53466,-0.22124 -1.147278,-0.33176 -1.838648,-0.33176 z m 19.364716,0.0553 c -0.9587,0 -1.84393,0.21158 -2.65513,0.63562 -0.81121,0.41483 -1.48382,1.00059 -2.01848,1.75648 -0.53466,0.74668 -0.88517,1.59929 -1.0511,2.55799 -0.0645,0.35029 -0.0966,0.70502 -0.0966,1.06453 0,0.77433 0.16105,1.45642 0.48369,2.04639 0.32264,0.58997 0.78841,1.04627 1.39682,1.36891 0.61762,0.32264 1.34601,0.48421 2.18488,0.48421 1.2168,0 2.29992,-0.32262 3.24941,-0.9679 0.94948,-0.6545 1.64526,-1.53973 2.08773,-2.65514 h -2.9316 c -0.23046,0.35951 -0.52046,0.63634 -0.87075,0.82992 -0.34108,0.19359 -0.71474,0.29043 -1.12035,0.29043 -0.52544,0 -0.94016,-0.16157 -1.24437,-0.48421 -0.29498,-0.33186 -0.44235,-0.78343 -0.44235,-1.35496 0,-0.22124 0.0184,-0.4286 0.0553,-0.62218 0.12905,-0.74668 0.41957,-1.3414 0.87126,-1.78387 0.4517,-0.44248 0.99063,-0.66353 1.61747,-0.66353 0.4056,0 0.74664,0.0968 1.0232,0.29042 0.27654,0.19358 0.47022,0.4699 0.58084,0.82941 h 2.91765 c -0.0276,-0.73746 -0.20764,-1.37797 -0.5395,-1.92185 -0.33186,-0.54387 -0.79711,-0.96333 -1.3963,-1.25832 -0.59918,-0.29498 -1.29969,-0.44235 -2.10168,-0.44235 z m -44.799856,0.0966 -1.728577,9.74824 h 2.724382 l 0.953947,-5.42034 0.8847,5.42034 h 2.268079 l 2.806547,-5.39244 -0.953947,5.39244 h 2.696476 l 1.728577,-9.74824 h -3.263367 l -3.498494,6.31899 -1.341004,-6.31899 z m 15.289506,0 -5.268412,9.74824 h 2.848405 l 0.802018,-1.59009 h 3.457153 l 0.248564,1.59009 h 2.862358 l -1.825212,-9.74824 z m 15.230078,0 -1.72806,9.74824 h 2.723865 l 0.691431,-3.91294 h 3.290766 l -0.69143,3.91294 h 2.72387 l 1.71462,-9.74824 h -2.70991 l -0.65009,3.67781 h -3.304719 l 0.650091,-3.67781 z m 19.696482,0 -1.72806,9.74824 h 2.72386 l 1.71463,-9.74824 z m 3.73,0 -1.72857,9.74824 h 2.72386 l 0.95447,-5.42034 0.8847,5.42034 h 2.26756 l 2.80706,-5.39244 -0.95394,5.39244 h 2.69647 l 1.72806,-9.74824 h -3.26285 l -3.49849,6.31899 -1.34152,-6.31899 z m 15.28951,0 -5.26841,9.74824 h 2.8484 l 0.80202,-1.59009 h 3.45664 l 0.24908,1.59009 h 2.86236 l -1.82522,-9.74824 z m -52.908924,2.93108 0.483692,3.16674 H 81.41153 Z m 53.945554,0 0.48421,3.16674 h -2.08825 z m 6.89622,4.12068 c -0.3503,0 -0.66818,0.0784 -0.95395,0.23513 -0.28576,0.14749 -0.51154,0.35012 -0.67748,0.60823 -0.1567,0.2489 -0.23512,0.52099 -0.23512,0.81597 0,0.34108 0.11999,0.61791 0.35966,0.82993 0.2489,0.21202 0.58521,0.31781 1.00925,0.31781 0.52544,0 0.96332,-0.15684 1.31361,-0.47026 0.35951,-0.32264 0.53899,-0.71421 0.53899,-1.17512 0,-0.34107 -0.12421,-0.6179 -0.37311,-0.82992 -0.23967,-0.22124 -0.56703,-0.33177 -0.98185,-0.33177 z"
           id="path46" /><path
           id="path43"
           style="-inkscape-font-specification:'Poppins Ultra-Bold Italic';paint-order:stroke markers fill"
           d="m 143.07602,221.93581 -1.0914,8.53901 c -0.0922,0.0991 -0.22306,0.15521 -0.29921,0.26717 l -1.55443,-8.30854 h -4.55114 l -3.15588,5.83995 1.03508,-5.83995 h -5.04517 l -2.48822,4.49223 -0.95292,-4.49223 h -3.91397 -1.00976 -3.73052 l -0.34985,1.97094 c -0.42478,-0.63728 -0.9847,-1.17832 -1.68568,-1.52342 -0.75786,-0.3731 -1.61798,-0.54519 -2.54248,-0.54519 -1.10436,0 -2.16171,0.25047 -3.11558,0.74828 -0.64364,0.32967 -1.11075,0.88484 -1.6092,1.40043 l 0.36122,-2.05104 h -4.74028 l -0.65009,3.67781 h -1.27382 l 0.6506,-3.67781 h -4.742344 l -0.300757,1.69551 c -0.03525,-0.054 -0.01973,-0.13008 -0.05839,-0.18191 -0.4141,-0.56683 -1.000266,-0.99098 -1.6738,-1.25935 -0.673421,-0.27737 -1.417684,-0.40669 -2.212785,-0.40669 -0.876789,0 -1.698792,0.1504 -2.439644,0.46922 -0.740542,0.31351 -1.373018,0.81215 -1.81436,1.46089 -0.454244,0.65862 -0.671793,1.4558 -0.671793,2.29082 0,0.67663 0.173202,1.33942 0.556555,1.87895 l 0.0036,0.006 0.0041,0.006 c 0.224646,0.30785 0.530879,0.52871 0.826306,0.75964 h -1.396814 l -1.257804,-6.71845 h -4.552694 l -3.154329,5.83995 1.035079,-5.83995 h -5.046721 l -2.486153,4.49016 -0.95343,-4.49016 h -4.925797 l -0.300757,1.69912 c -0.03632,-0.0558 -0.02051,-0.1341 -0.06046,-0.18759 -0.413683,-0.56528 -0.998876,-0.9897 -1.671732,-1.2578 -0.67363,-0.27746 -1.417684,-0.40618 -2.212785,-0.40618 -0.876788,0 -1.698792,0.14989 -2.439644,0.46871 -0.740732,0.31359 -1.373288,0.81255 -1.81436,1.46089 -0.453973,0.65823 -0.673861,1.4558 -0.673861,2.29133 0,0.6773 0.175646,1.33944 0.558623,1.87844 l 0.0036,0.006 0.0041,0.006 c 0.224645,0.30785 0.53088,0.52872 0.826306,0.75965 h -1.904276 l -0.09198,0.90227 c -0.01965,0.19655 -0.03152,0.32691 -0.03152,0.48627 0,1.14882 0.529348,2.231 1.455208,2.86908 l 0.0062,0.004 0.0078,0.004 c 0.899519,0.59969 2.016047,0.85938 3.277319,0.85938 0.90121,0 1.731339,-0.14611 2.466516,-0.47284 l 0.0062,-0.002 0.0057,-0.004 c 0.272882,-0.12562 0.428863,-0.37774 0.666109,-0.54725 l -0.163814,0.92966 h 4.755782 l 0.07596,-0.43718 0.07235,0.43718 h 3.726388 l 0.0801,-0.154 -0.02739,0.154 h 2.582271 2.144572 2.9962 l 0.800468,-1.58957 h 1.986442 l 0.248047,1.58957 h 4.92373 l -0.152446,-0.81236 c 0.015,0.0107 0.01992,0.0303 0.03514,0.0408 l 0.0078,0.004 0.0062,0.004 c 0.899519,0.59969 2.016047,0.85938 3.277319,0.85938 0.901209,0 1.731339,-0.14611 2.466517,-0.47284 l 0.0062,-0.002 0.0057,-0.004 c 0.272882,-0.12562 0.428864,-0.37774 0.666109,-0.54725 l -0.163814,0.92966 h 4.755782 l 0.691431,-3.91397 h 1.259865 l -0.69143,3.91397 h 4.75578 l 0.37673,-2.14457 c 0.41013,0.66296 0.94527,1.24344 1.64279,1.61333 l 0.004,0.002 h 0.002 c 0.78217,0.40861 1.68114,0.5979 2.64842,0.5979 1.39355,0 2.69688,-0.38411 3.81062,-1.14102 l 0.004,-0.002 0.002,-0.002 c 0.28712,-0.19792 0.50258,-0.46858 0.75189,-0.70538 l -0.31626,1.78129 h 3.72846 1.02733 3.72845 l 0.078,-0.44339 0.0724,0.44339 h 3.72484 l 0.0801,-0.154 -0.0274,0.154 h 2.58175 2.14664 2.99413 l 0.80254,-1.58957 h 1.98437 l 0.25012,1.58957 h 4.92218 l -0.0646,-0.33952 c 0.4143,0.25084 0.86662,0.45114 1.34566,0.45114 0.72443,0 1.44487,-0.24756 1.98024,-0.72657 0.5357,-0.48077 0.87126,-1.19978 0.87126,-1.9203 0,-0.40907 -0.27243,-0.76323 -0.50798,-1.11517 h 0.28319 l 0.262,-1.18133 0.22427,0.39636 3.92018,-2.21278 -3.15847,-5.5976 z m 0.88057,0.99994 h 2.94504 l 2.38073,4.21834 -2.17764,1.22887 -1.0139,-1.79834 -0.65474,2.94659 h -2.32285 z m -82.101451,0.34571 c 0.69137,0 1.304505,0.11052 1.839164,0.33176 0.53466,0.21202 0.949384,0.52045 1.244369,0.92605 0.304203,0.4056 0.456303,0.88505 0.456303,1.43815 0,0.14749 -0.0042,0.25806 -0.01344,0.33176 h -2.917651 c 0.0093,-0.0461 0.01395,-0.11027 0.01395,-0.19327 0,-0.22124 -0.06947,-0.39175 -0.207739,-0.51159 -0.138274,-0.12908 -0.327215,-0.19379 -0.566891,-0.19379 -0.248892,0 -0.45152,0.0647 -0.608231,0.19379 -0.147495,0.11984 -0.221175,0.29035 -0.221175,0.51159 0,0.23967 0.115258,0.44705 0.345715,0.62219 0.239675,0.16594 0.60809,0.36383 1.105876,0.59428 0.53466,0.2489 0.972539,0.48414 1.313615,0.70538 0.350294,0.21202 0.64976,0.4978 0.898653,0.85731 0.248893,0.35951 0.37362,0.80213 0.37362,1.32757 0,0.58075 -0.156834,1.106 -0.470255,1.57613 -0.313421,0.46091 -0.760253,0.8251 -1.341004,1.09244 -0.58075,0.2581 -1.267568,0.38706 -2.060339,0.38706 -1.124629,0 -2.032495,-0.23051 -2.723865,-0.69143 -0.682151,-0.47012 -1.02371,-1.15222 -1.02371,-2.04639 0,-0.0737 0.0095,-0.20269 0.0279,-0.38706 h 2.862358 c -0.02765,0.31342 0.03656,0.55764 0.19327,0.73278 0.156711,0.17513 0.396697,0.26303 0.719336,0.26303 0.267329,0 0.479426,-0.06 0.636137,-0.17984 0.165933,-0.11984 0.248563,-0.29035 0.248563,-0.51159 0,-0.2581 -0.119476,-0.47021 -0.359151,-0.63614 -0.230456,-0.16593 -0.608856,-0.3596 -1.134298,-0.58084 -0.525441,-0.22123 -0.958586,-0.4286 -1.299662,-0.62219 -0.341076,-0.2028 -0.635807,-0.47489 -0.8847,-0.81597 -0.248894,-0.35029 -0.373621,-0.78344 -0.373621,-1.29966 0,-0.67294 0.166304,-1.24923 0.498161,-1.72858 0.331858,-0.48857 0.792375,-0.85697 1.382344,-1.10587 0.599188,-0.25811 1.281271,-0.38706 2.046387,-0.38706 z m 30.520101,0 c 0.69137,0 1.303988,0.11052 1.838648,0.33176 0.534659,0.21202 0.9499,0.52045 1.244885,0.92605 0.304202,0.4056 0.456303,0.88505 0.456303,1.43815 0,0.14749 -0.0048,0.25806 -0.01395,0.33176 h -2.917651 c 0.0092,-0.0461 0.01395,-0.11027 0.01395,-0.19327 0,-0.22124 -0.06946,-0.39175 -0.207739,-0.51159 -0.138274,-0.12908 -0.327215,-0.19379 -0.56689,-0.19379 -0.248894,0 -0.451522,0.0647 -0.608232,0.19379 -0.147495,0.11984 -0.221175,0.29035 -0.221175,0.51159 0,0.23967 0.115259,0.44705 0.345715,0.62219 0.239676,0.16594 0.60809,0.36383 1.105876,0.59428 0.534659,0.2489 0.972539,0.48414 1.313615,0.70538 0.350294,0.21202 0.650276,0.4978 0.89917,0.85731 0.248893,0.35951 0.373104,0.80213 0.373104,1.32757 0,0.58075 -0.156835,1.106 -0.470256,1.57613 -0.313421,0.46091 -0.760253,0.8251 -1.341003,1.09244 -0.580752,0.2581 -1.267569,0.38706 -2.06034,0.38706 -1.124628,0 -2.032495,-0.23051 -2.723865,-0.69143 -0.682151,-0.47012 -1.023193,-1.15222 -1.023193,-2.04639 0,-0.0737 0.009,-0.20269 0.02739,-0.38706 h 2.862357 c -0.02765,0.31342 0.03708,0.55764 0.193787,0.73278 0.156711,0.17513 0.39618,0.26303 0.718819,0.26303 0.267329,0 0.479426,-0.06 0.636137,-0.17984 0.16593,-0.11984 0.24908,-0.29035 0.24908,-0.51159 0,-0.2581 -0.119993,-0.47021 -0.359668,-0.63614 -0.230456,-0.16593 -0.608339,-0.3596 -1.133781,-0.58084 -0.525441,-0.22123 -0.959103,-0.4286 -1.300179,-0.62219 -0.341075,-0.2028 -0.635807,-0.47489 -0.8847,-0.81597 -0.248893,-0.35029 -0.373104,-0.78344 -0.373104,-1.29966 0,-0.67294 0.165787,-1.24923 0.497644,-1.72858 0.331858,-0.48857 0.792893,-0.85697 1.382861,-1.10587 0.599188,-0.25811 1.28127,-0.38706 2.046387,-0.38706 z m 19.36471,0.0553 c 0.80199,0 1.5025,0.14737 2.10168,0.44235 0.59919,0.29499 1.06444,0.71445 1.3963,1.25832 0.33186,0.54388 0.5119,1.18438 0.5395,1.92184 h -2.91765 c -0.11062,-0.35951 -0.30431,-0.63582 -0.58085,-0.8294 -0.27656,-0.19362 -0.61759,-0.29043 -1.02319,-0.29043 -0.62684,0 -1.16577,0.22105 -1.61747,0.66353 -0.45169,0.44247 -0.74222,1.03719 -0.87127,1.78387 -0.0369,0.19358 -0.0553,0.40095 -0.0553,0.62219 0,0.57153 0.14737,1.02309 0.44235,1.35495 0.30421,0.32264 0.71893,0.48421 1.24437,0.48421 0.40561,0 0.77926,-0.0968 1.12034,-0.29042 0.35029,-0.19358 0.64029,-0.47042 0.87075,-0.82993 h 2.93161 c -0.44247,1.11541 -1.13825,2.00064 -2.08773,2.65514 -0.94949,0.64528 -2.03262,0.9679 -3.24942,0.9679 -0.83887,0 -1.56726,-0.16157 -2.18488,-0.48421 -0.60841,-0.32264 -1.07417,-0.77894 -1.39681,-1.36891 -0.32264,-0.58997 -0.48369,-1.27205 -0.48369,-2.04638 0,-0.35951 0.0321,-0.71425 0.0966,-1.06454 0.16593,-0.9587 0.51644,-1.8113 1.0511,-2.55798 0.53466,-0.75589 1.20727,-1.34165 2.01848,-1.75648 0.8112,-0.42404 1.69644,-0.63562 2.65514,-0.63562 z m -44.79985,0.0966 h 3.277319 l 1.341004,6.31899 3.498494,-6.31899 h 3.263367 l -1.728577,9.74824 h -2.696476 l 0.953947,-5.39243 -2.806547,5.39243 h -2.268079 l -0.8847,-5.42034 -0.953947,5.42034 h -2.724382 z m 15.289506,0 h 3.124874 l 1.825212,9.74824 h -2.862358 l -0.248564,-1.59008 h -3.457153 l -0.802018,1.59008 h -2.848405 z m 15.230078,0 h 2.710426 l -0.650086,3.67781 h 3.304706 l 0.65009,-3.67781 h 2.70991 l -1.71462,9.74824 h -2.72387 l 0.69143,-3.91294 h -3.29075 l -0.691431,3.91294 h -2.723865 z m 19.696476,0 h 2.71043 l -1.71463,9.74824 h -2.72386 z m 3.73,0 h 3.2768 l 1.34152,6.31899 3.4985,-6.31899 h 3.26285 l -1.72806,9.74824 h -2.69648 l 0.95395,-5.39243 -2.80706,5.39243 h -2.26757 l -0.8847,-5.42034 -0.95446,5.42034 h -2.72387 z m 15.28951,0 h 3.12487 l 1.82521,9.74824 h -2.86235 l -0.24909,-1.59008 h -3.45663 l -0.80202,1.59008 h -2.8484 z m -52.908918,2.93109 -1.604036,3.16673 h 2.087728 z m 53.945548,0 -1.60404,3.16673 h 2.08824 z m -25.95656,0.4749 v 5.2e-4 c 0.24649,0 0.36116,0.0477 0.44959,0.10955 0.09,0.063 0.14246,0.12079 0.19895,0.30438 l 0.21704,0.70538 h 3.21841 l -0.11886,0.66766 h -3.37705 l -0.29714,0.46096 c -0.15064,0.23499 -0.31006,0.38264 -0.5116,0.49402 l -0.004,0.004 -0.006,0.002 c -0.19292,0.1095 -0.38039,0.1602 -0.62683,0.1602 -0.30955,0 -0.39749,-0.0576 -0.50023,-0.16381 -0.10226,-0.11856 -0.18758,-0.28527 -0.18758,-0.67593 0,-0.16579 0.0155,-0.30896 0.0393,-0.43357 l 0.002,-0.0103 v -0.008 c 0.10133,-0.5863 0.30119,-0.96123 0.58601,-1.24024 0.28659,-0.28074 0.52602,-0.37724 0.91777,-0.37724 z m -46.966641,0.46923 h 0.949296 l -0.136942,0.77153 c -0.24105,-0.2913 -0.502267,-0.56226 -0.812354,-0.77153 z m 30.519584,0 h 0.949296 l -0.136942,0.76946 c -0.240979,-0.29068 -0.503021,-0.56079 -0.812354,-0.76946 z m 47.886487,2.52336 c -0.004,0.002 -0.006,0.006 -0.01,0.008 -0.004,0.002 -0.008,0.002 -0.0119,0.004 z m 3.0427,0.22272 h 5.2e-4 l 0.031,0.0274 c -0.006,-0.006 -0.017,-0.002 -0.0233,-0.008 -0.005,-0.005 -0.002,-0.0145 -0.008,-0.0191 z m -1.62935,0.43047 c 0.41482,0 0.74218,0.11052 0.98185,0.33176 0.2489,0.21202 0.3731,0.48885 0.3731,0.82992 0,0.46091 -0.17947,0.85248 -0.53898,1.17512 -0.35029,0.31342 -0.78818,0.47026 -1.31362,0.47026 -0.42404,0 -0.76034,-0.10579 -1.00924,-0.31781 -0.23967,-0.21202 -0.35967,-0.48884 -0.35967,-0.82992 0,-0.29498 0.0784,-0.56707 0.23513,-0.81597 0.16594,-0.25811 0.39172,-0.46075 0.67748,-0.60824 0.28577,-0.15673 0.60365,-0.23512 0.95395,-0.23512 z" /></g></g></g></svg>
